<svg xmlns="http://www.w3.org/2000/svg" xmlns:xlink="http://www.w3.org/1999/xlink" version="1.1" x="0px" y="0px" viewBox="-489 491 100 100" enable-background="new -489 491 100 100" xml:space="preserve"><path fill="#333" d="M-435.2,567.9h-26.9v7.7h26.9V567.9z M-415.9,552.5h-46.2v7.7h46.2V552.5z M-415.9,537.2h-46.2v7.7h46.2V537.2z   M-415.9,521.8h-46.2v7.7h46.2V521.8z M-469.8,583.3v-76.9h11.5v7.7h38.5v-7.7h11.5v76.9H-469.8z M-439,502.5  c-2.2,0-3.8-1.7-3.8-3.8c0-2.2,1.7-3.8,3.8-3.8s3.8,1.7,3.8,3.8C-435.2,500.8-436.8,502.5-439,502.5z M-473.6,591h69.2  c3.8,0,3.8,0,3.8-3.8v-84.6c0-3.8,0-3.8-3.8-3.8h-23.1v-3.8c0-3.8,0-3.8-3.8-3.8h-15.4c-3.8,0-3.8,0-3.8,3.8v3.8h-23.1  c-3.8,0-3.8,0-3.8,3.8v84.6C-477.5,591-477.5,591-473.6,591z"/></svg>
